<?xml version="1.0" encoding="UTF-8" standalone="no"?><svg xmlns="http://www.w3.org/2000/svg" xmlns:xlink="http://www.w3.org/1999/xlink" clip-rule="evenodd" stroke-miterlimit="4.00" viewBox="0 0 1024 768"><desc>SVG generated by Keynote</desc><defs></defs><g transform="matrix(1.00, 0.00, -0.00, -1.00, 0.0, 768.0)"><path d="M 0.0 768.0 L 1024.0 768.0 L 1024.0 0.0 L 0.0 0.0 Z M 0.0 768.0 " fill="#000000"></path><text xml:space="preserve" font-family="Helvetica-Light" font-size="150.0" fill="#FEFFFF" transform="matrix(1.00, 0.00, -0.00, -1.00, 252.0, 508.0)">M</text><text xml:space="preserve" font-family="Helvetica-Light" font-size="150.0" fill="#FEFFFF" transform="matrix(1.00, 0.00, -0.00, -1.00, 376.9, 508.0)">o</text><text xml:space="preserve" font-family="Helvetica-Light" font-size="150.0" fill="#FEFFFF" transform="matrix(1.00, 0.00, -0.00, -1.00, 460.3, 508.0)">d</text><text xml:space="preserve" font-family="Helvetica-Light" font-size="150.0" fill="#FEFFFF" transform="matrix(1.00, 0.00, -0.00, -1.00, 552.0, 508.0)">e</text><text xml:space="preserve" font-family="Helvetica-Light" font-size="150.0" fill="#FEFFFF" transform="matrix(1.00, 0.00, -0.00, -1.00, 635.4, 508.0)">r</text><text xml:space="preserve" font-family="Helvetica-Light" font-size="150.0" fill="#FEFFFF" transform="matrix(1.00, 0.00, -0.00, -1.00, 688.0, 508.0)">n</text><text xml:space="preserve" font-family="Helvetica-Light" font-size="150.0" fill="#FEFFFF" transform="matrix(1.00, 0.00, -0.00, -1.00, 771.4, 508.0)"> </text><text xml:space="preserve" font-family="Helvetica-Light" font-size="150.0" fill="#FEFFFF" transform="matrix(1.00, 0.00, -0.00, -1.00, 158.0, 328.0)">J</text><text xml:space="preserve" font-family="Helvetica-Light" font-size="150.0" fill="#FEFFFF" transform="matrix(1.00, 0.00, -0.00, -1.00, 233.0, 328.0)">a</text><text xml:space="preserve" font-family="Helvetica-Light" font-size="150.0" fill="#FEFFFF" transform="matrix(1.00, 0.00, -0.00, -1.00, 316.4, 328.0)">v</text><text xml:space="preserve" font-family="Helvetica-Light" font-size="150.0" fill="#FEFFFF" transform="matrix(1.00, 0.00, -0.00, -1.00, 391.4, 328.0)">a</text><text xml:space="preserve" font-family="Helvetica-Light" font-size="150.0" fill="#FEFFFF" transform="matrix(1.00, 0.00, -0.00, -1.00, 474.8, 328.0)">S</text><text xml:space="preserve" font-family="Helvetica-Light" font-size="150.0" fill="#FEFFFF" transform="matrix(1.00, 0.00, -0.00, -1.00, 566.4, 328.0)">c</text><text xml:space="preserve" font-family="Helvetica-Light" font-size="150.0" fill="#FEFFFF" transform="matrix(1.00, 0.00, -0.00, -1.00, 649.8, 328.0)">r</text><text xml:space="preserve" font-family="Helvetica-Light" font-size="150.0" fill="#FEFFFF" transform="matrix(1.00, 0.00, -0.00, -1.00, 699.8, 328.0)">i</text><text xml:space="preserve" font-family="Helvetica-Light" font-size="150.0" fill="#FEFFFF" transform="matrix(1.00, 0.00, -0.00, -1.00, 733.1, 328.0)">p</text><text xml:space="preserve" font-family="Helvetica-Light" font-size="150.0" fill="#FEFFFF" transform="matrix(1.00, 0.00, -0.00, -1.00, 824.7, 328.0)">t</text><text xml:space="preserve" font-family="Helvetica-Light" font-size="150.0" fill="#FEFFFF" transform="matrix(1.00, 0.00, -0.00, -1.00, 866.4, 328.0)"> </text><text xml:space="preserve" font-family="Helvetica-Light" font-size="150.0" fill="#FEFFFF" transform="matrix(1.00, 0.00, -0.00, -1.00, 254.0, 148.0)">T</text><text xml:space="preserve" font-family="Helvetica-Light" font-size="150.0" fill="#FEFFFF" transform="matrix(1.00, 0.00, -0.00, -1.00, 320.8, 148.0)">o</text><text xml:space="preserve" font-family="Helvetica-Light" font-size="150.0" fill="#FEFFFF" transform="matrix(1.00, 0.00, -0.00, -1.00, 404.1, 148.0)">o</text><text xml:space="preserve" font-family="Helvetica-Light" font-size="150.0" fill="#FEFFFF" transform="matrix(1.00, 0.00, -0.00, -1.00, 487.5, 148.0)">l</text><text xml:space="preserve" font-family="Helvetica-Light" font-size="150.0" fill="#FEFFFF" transform="matrix(1.00, 0.00, -0.00, -1.00, 520.8, 148.0)">b</text><text xml:space="preserve" font-family="Helvetica-Light" font-size="150.0" fill="#FEFFFF" transform="matrix(1.00, 0.00, -0.00, -1.00, 612.5, 148.0)">e</text><text xml:space="preserve" font-family="Helvetica-Light" font-size="150.0" fill="#FEFFFF" transform="matrix(1.00, 0.00, -0.00, -1.00, 695.9, 148.0)">l</text><text xml:space="preserve" font-family="Helvetica-Light" font-size="150.0" fill="#FEFFFF" transform="matrix(1.00, 0.00, -0.00, -1.00, 729.2, 148.0)">t</text></g></svg>