<?xml version="1.0" encoding="UTF-8" standalone="no"?><svg xmlns="http://www.w3.org/2000/svg" xmlns:xlink="http://www.w3.org/1999/xlink" clip-rule="evenodd" stroke-miterlimit="4.00" viewBox="0 0 1024 768"><desc>SVG generated by Keynote</desc><defs></defs><g transform="matrix(1.00, 0.00, -0.00, -1.00, 0.0, 768.0)"><path d="M 0.0 768.0 L 1024.0 768.0 L 1024.0 0.0 L 0.0 0.0 Z M 0.0 768.0 " fill="#000000"></path><text xml:space="preserve" font-family="Helvetica-Bold" font-weight="bold" font-size="65.0" fill="#FEFFFF" transform="matrix(1.00, 0.00, -0.00, -1.00, 68.0, 594.0)">C</text><text xml:space="preserve" font-family="Helvetica-Bold" font-weight="bold" font-size="65.0" fill="#FEFFFF" transform="matrix(1.00, 0.00, -0.00, -1.00, 115.0, 594.0)">o</text><text xml:space="preserve" font-family="Helvetica-Bold" font-weight="bold" font-size="65.0" fill="#FEFFFF" transform="matrix(1.00, 0.00, -0.00, -1.00, 154.6, 594.0)">u</text><text xml:space="preserve" font-family="Helvetica-Bold" font-weight="bold" font-size="65.0" fill="#FEFFFF" transform="matrix(1.00, 0.00, -0.00, -1.00, 194.3, 594.0)">r</text><text xml:space="preserve" font-family="Helvetica-Bold" font-weight="bold" font-size="65.0" fill="#FEFFFF" transform="matrix(1.00, 0.00, -0.00, -1.00, 219.6, 594.0)">t</text><text xml:space="preserve" font-family="Helvetica-Bold" font-weight="bold" font-size="65.0" fill="#FEFFFF" transform="matrix(1.00, 0.00, -0.00, -1.00, 241.3, 594.0)"> </text><text xml:space="preserve" font-family="Helvetica-Bold" font-weight="bold" font-size="65.0" fill="#FEFFFF" transform="matrix(1.00, 0.00, -0.00, -1.00, 259.3, 594.0)">E</text><text xml:space="preserve" font-family="Helvetica-Bold" font-weight="bold" font-size="65.0" fill="#FEFFFF" transform="matrix(1.00, 0.00, -0.00, -1.00, 302.7, 594.0)">w</text><text xml:space="preserve" font-family="Helvetica-Bold" font-weight="bold" font-size="65.0" fill="#FEFFFF" transform="matrix(1.00, 0.00, -0.00, -1.00, 353.2, 594.0)">i</text><text xml:space="preserve" font-family="Helvetica-Bold" font-weight="bold" font-size="65.0" fill="#FEFFFF" transform="matrix(1.00, 0.00, -0.00, -1.00, 371.3, 594.0)">n</text><text xml:space="preserve" font-family="Helvetica-Bold" font-weight="bold" font-size="65.0" fill="#FEFFFF" transform="matrix(1.00, 0.00, -0.00, -1.00, 411.0, 594.0)">g</text><text xml:space="preserve" font-family="Helvetica-Light" font-size="65.0" fill="#FEFFFF" transform="matrix(1.00, 0.00, -0.00, -1.00, 68.0, 438.0)">T</text><text xml:space="preserve" font-family="Helvetica-Light" font-size="65.0" fill="#FEFFFF" transform="matrix(1.00, 0.00, -0.00, -1.00, 96.9, 438.0)">e</text><text xml:space="preserve" font-family="Helvetica-Light" font-size="65.0" fill="#FEFFFF" transform="matrix(1.00, 0.00, -0.00, -1.00, 133.1, 438.0)">c</text><text xml:space="preserve" font-family="Helvetica-Light" font-size="65.0" fill="#FEFFFF" transform="matrix(1.00, 0.00, -0.00, -1.00, 169.2, 438.0)">h</text><text xml:space="preserve" font-family="Helvetica-Light" font-size="65.0" fill="#FEFFFF" transform="matrix(1.00, 0.00, -0.00, -1.00, 205.3, 438.0)"> </text><text xml:space="preserve" font-family="Helvetica-Light" font-size="65.0" fill="#FEFFFF" transform="matrix(1.00, 0.00, -0.00, -1.00, 223.4, 438.0)">L</text><text xml:space="preserve" font-family="Helvetica-Light" font-size="65.0" fill="#FEFFFF" transform="matrix(1.00, 0.00, -0.00, -1.00, 259.6, 438.0)">e</text><text xml:space="preserve" font-family="Helvetica-Light" font-size="65.0" fill="#FEFFFF" transform="matrix(1.00, 0.00, -0.00, -1.00, 295.7, 438.0)">a</text><text xml:space="preserve" font-family="Helvetica-Light" font-size="65.0" fill="#FEFFFF" transform="matrix(1.00, 0.00, -0.00, -1.00, 331.8, 438.0)">d</text><text xml:space="preserve" font-family="Helvetica-Light" font-size="65.0" fill="#FEFFFF" transform="matrix(1.00, 0.00, -0.00, -1.00, 371.5, 438.0)"> </text><text xml:space="preserve" font-family="Helvetica-Light" font-size="17.0" fill="#FEFFFF" transform="matrix(1.00, 0.00, -0.00, -1.00, 389.6, 438.0)"> </text><text xml:space="preserve" font-family="Helvetica-Light" font-size="65.0" fill="#FEFFFF" transform="matrix(1.00, 0.00, -0.00, -1.00, 394.3, 438.0)">@</text><text xml:space="preserve" font-family="Helvetica-Light" font-size="65.0" fill="#FEFFFF" transform="matrix(1.00, 0.00, -0.00, -1.00, 446.3, 438.0)"> </text><text xml:space="preserve" font-family="Helvetica-Light" font-size="65.0" fill="#FEFFFF" transform="matrix(1.00, 0.00, -0.00, -1.00, 464.4, 438.0)">E</text><text xml:space="preserve" font-family="Helvetica-Light" font-size="65.0" fill="#FEFFFF" transform="matrix(1.00, 0.00, -0.00, -1.00, 504.1, 438.0)">l</text><text xml:space="preserve" font-family="Helvetica-Light" font-size="65.0" fill="#FEFFFF" transform="matrix(1.00, 0.00, -0.00, -1.00, 518.6, 438.0)">a</text><text xml:space="preserve" font-family="Helvetica-Light" font-size="65.0" fill="#FEFFFF" transform="matrix(1.00, 0.00, -0.00, -1.00, 554.7, 438.0)">s</text><text xml:space="preserve" font-family="Helvetica-Light" font-size="65.0" fill="#FEFFFF" transform="matrix(1.00, 0.00, -0.00, -1.00, 587.2, 438.0)">t</text><text xml:space="preserve" font-family="Helvetica-Light" font-size="65.0" fill="#FEFFFF" transform="matrix(1.00, 0.00, -0.00, -1.00, 605.3, 438.0)">i</text><text xml:space="preserve" font-family="Helvetica-Light" font-size="65.0" fill="#FEFFFF" transform="matrix(1.00, 0.00, -0.00, -1.00, 619.7, 438.0)">c</text><text xml:space="preserve" font-family="Helvetica-Light" font-size="65.0" fill="#FEFFFF" transform="matrix(1.00, 0.00, -0.00, -1.00, 655.8, 438.0)"> </text><text xml:space="preserve" font-family="Helvetica-Light" font-size="65.0" fill="#FEFFFF" transform="matrix(1.00, 0.00, -0.00, -1.00, 673.9, 438.0)">(</text><text xml:space="preserve" font-family="Helvetica-Light" font-size="65.0" fill="#FEFFFF" transform="matrix(1.00, 0.00, -0.00, -1.00, 695.6, 438.0)">K</text><text xml:space="preserve" font-family="Helvetica-Light" font-size="65.0" fill="#FEFFFF" transform="matrix(1.00, 0.00, -0.00, -1.00, 738.9, 438.0)">i</text><text xml:space="preserve" font-family="Helvetica-Light" font-size="65.0" fill="#FEFFFF" transform="matrix(1.00, 0.00, -0.00, -1.00, 753.3, 438.0)">b</text><text xml:space="preserve" font-family="Helvetica-Light" font-size="65.0" fill="#FEFFFF" transform="matrix(1.00, 0.00, -0.00, -1.00, 793.1, 438.0)">a</text><text xml:space="preserve" font-family="Helvetica-Light" font-size="65.0" fill="#FEFFFF" transform="matrix(1.00, 0.00, -0.00, -1.00, 829.2, 438.0)">n</text><text xml:space="preserve" font-family="Helvetica-Light" font-size="65.0" fill="#FEFFFF" transform="matrix(1.00, 0.00, -0.00, -1.00, 865.3, 438.0)">a</text><text xml:space="preserve" font-family="Helvetica-Light" font-size="65.0" fill="#FEFFFF" transform="matrix(1.00, 0.00, -0.00, -1.00, 901.5, 438.0)">)</text><text xml:space="preserve" font-family="Helvetica-Light" font-size="65.0" fill="#FEFFFF" transform="matrix(1.00, 0.00, -0.00, -1.00, 923.1, 438.0)"> </text><text xml:space="preserve" font-family="Helvetica-Light" font-size="65.0" fill="#FEFFFF" transform="matrix(1.00, 0.00, -0.00, -1.00, 68.0, 282.0)">O</text><text xml:space="preserve" font-family="Helvetica-Light" font-size="65.0" fill="#FEFFFF" transform="matrix(1.00, 0.00, -0.00, -1.00, 118.6, 282.0)">r</text><text xml:space="preserve" font-family="Helvetica-Light" font-size="65.0" fill="#FEFFFF" transform="matrix(1.00, 0.00, -0.00, -1.00, 140.2, 282.0)">g</text><text xml:space="preserve" font-family="Helvetica-Light" font-size="65.0" fill="#FEFFFF" transform="matrix(1.00, 0.00, -0.00, -1.00, 179.9, 282.0)">a</text><text xml:space="preserve" font-family="Helvetica-Light" font-size="65.0" fill="#FEFFFF" transform="matrix(1.00, 0.00, -0.00, -1.00, 216.1, 282.0)">n</text><text xml:space="preserve" font-family="Helvetica-Light" font-size="65.0" fill="#FEFFFF" transform="matrix(1.00, 0.00, -0.00, -1.00, 252.2, 282.0)">i</text><text xml:space="preserve" font-family="Helvetica-Light" font-size="65.0" fill="#FEFFFF" transform="matrix(1.00, 0.00, -0.00, -1.00, 266.6, 282.0)">z</text><text xml:space="preserve" font-family="Helvetica-Light" font-size="65.0" fill="#FEFFFF" transform="matrix(1.00, 0.00, -0.00, -1.00, 299.1, 282.0)">e</text><text xml:space="preserve" font-family="Helvetica-Light" font-size="65.0" fill="#FEFFFF" transform="matrix(1.00, 0.00, -0.00, -1.00, 335.3, 282.0)">r</text><text xml:space="preserve" font-family="Helvetica-Light" font-size="65.0" fill="#FEFFFF" transform="matrix(1.00, 0.00, -0.00, -1.00, 356.9, 282.0)"> </text><text xml:space="preserve" font-family="Helvetica-Light" font-size="65.0" fill="#FEFFFF" transform="matrix(1.00, 0.00, -0.00, -1.00, 375.0, 282.0)"> </text><text xml:space="preserve" font-family="Helvetica-Light" font-size="65.0" fill="#FEFFFF" transform="matrix(1.00, 0.00, -0.00, -1.00, 393.1, 282.0)">@</text><text xml:space="preserve" font-family="Helvetica-Light" font-size="65.0" fill="#FEFFFF" transform="matrix(1.00, 0.00, -0.00, -1.00, 445.1, 282.0)"> </text><text xml:space="preserve" font-family="Helvetica-Light" font-size="65.0" fill="#FEFFFF" transform="matrix(1.00, 0.00, -0.00, -1.00, 463.1, 282.0)">P</text><text xml:space="preserve" font-family="Helvetica-Light" font-size="65.0" fill="#FEFFFF" transform="matrix(1.00, 0.00, -0.00, -1.00, 502.8, 282.0)">u</text><text xml:space="preserve" font-family="Helvetica-Light" font-size="65.0" fill="#FEFFFF" transform="matrix(1.00, 0.00, -0.00, -1.00, 539.0, 282.0)">b</text><text xml:space="preserve" font-family="Helvetica-Light" font-size="65.0" fill="#FEFFFF" transform="matrix(1.00, 0.00, -0.00, -1.00, 578.7, 282.0)"> </text><text xml:space="preserve" font-family="Helvetica-Light" font-size="65.0" fill="#FEFFFF" transform="matrix(1.00, 0.00, -0.00, -1.00, 596.8, 282.0)">S</text><text xml:space="preserve" font-family="Helvetica-Light" font-size="65.0" fill="#FEFFFF" transform="matrix(1.00, 0.00, -0.00, -1.00, 636.5, 282.0)">t</text><text xml:space="preserve" font-family="Helvetica-Light" font-size="65.0" fill="#FEFFFF" transform="matrix(1.00, 0.00, -0.00, -1.00, 654.6, 282.0)">a</text><text xml:space="preserve" font-family="Helvetica-Light" font-size="65.0" fill="#FEFFFF" transform="matrix(1.00, 0.00, -0.00, -1.00, 690.7, 282.0)">n</text><text xml:space="preserve" font-family="Helvetica-Light" font-size="65.0" fill="#FEFFFF" transform="matrix(1.00, 0.00, -0.00, -1.00, 726.8, 282.0)">d</text><text xml:space="preserve" font-family="Helvetica-Light" font-size="65.0" fill="#FEFFFF" transform="matrix(1.00, 0.00, -0.00, -1.00, 766.6, 282.0)">a</text><text xml:space="preserve" font-family="Helvetica-Light" font-size="65.0" fill="#FEFFFF" transform="matrix(1.00, 0.00, -0.00, -1.00, 802.7, 282.0)">r</text><text xml:space="preserve" font-family="Helvetica-Light" font-size="65.0" fill="#FEFFFF" transform="matrix(1.00, 0.00, -0.00, -1.00, 823.2, 282.0)">d</text><text xml:space="preserve" font-family="Helvetica-Light" font-size="65.0" fill="#FEFFFF" transform="matrix(1.00, 0.00, -0.00, -1.00, 862.9, 282.0)">s</text><text xml:space="preserve" font-family="Helvetica-Light" font-size="65.0" fill="#FEFFFF" transform="matrix(1.00, 0.00, -0.00, -1.00, 895.4, 282.0)"> </text><text xml:space="preserve" font-family="Helvetica-Light" font-size="65.0" fill="#FEFFFF" transform="matrix(1.00, 0.00, -0.00, -1.00, 68.0, 126.0)">V</text><text xml:space="preserve" font-family="Helvetica-Light" font-size="65.0" fill="#FEFFFF" transform="matrix(1.00, 0.00, -0.00, -1.00, 104.1, 126.0)">o</text><text xml:space="preserve" font-family="Helvetica-Light" font-size="65.0" fill="#FEFFFF" transform="matrix(1.00, 0.00, -0.00, -1.00, 140.3, 126.0)">l</text><text xml:space="preserve" font-family="Helvetica-Light" font-size="65.0" fill="#FEFFFF" transform="matrix(1.00, 0.00, -0.00, -1.00, 154.7, 126.0)">u</text><text xml:space="preserve" font-family="Helvetica-Light" font-size="65.0" fill="#FEFFFF" transform="matrix(1.00, 0.00, -0.00, -1.00, 190.9, 126.0)">n</text><text xml:space="preserve" font-family="Helvetica-Light" font-size="65.0" fill="#FEFFFF" transform="matrix(1.00, 0.00, -0.00, -1.00, 227.0, 126.0)">t</text><text xml:space="preserve" font-family="Helvetica-Light" font-size="65.0" fill="#FEFFFF" transform="matrix(1.00, 0.00, -0.00, -1.00, 245.1, 126.0)">e</text><text xml:space="preserve" font-family="Helvetica-Light" font-size="65.0" fill="#FEFFFF" transform="matrix(1.00, 0.00, -0.00, -1.00, 281.2, 126.0)">e</text><text xml:space="preserve" font-family="Helvetica-Light" font-size="65.0" fill="#FEFFFF" transform="matrix(1.00, 0.00, -0.00, -1.00, 317.3, 126.0)">r</text><text xml:space="preserve" font-family="Helvetica-Light" font-size="65.0" fill="#FEFFFF" transform="matrix(1.00, 0.00, -0.00, -1.00, 339.0, 126.0)"> </text><text xml:space="preserve" font-family="Helvetica-Light" font-size="65.0" fill="#FEFFFF" transform="matrix(1.00, 0.00, -0.00, -1.00, 357.1, 126.0)"> </text><text xml:space="preserve" font-family="Helvetica-Light" font-size="65.0" fill="#FEFFFF" transform="matrix(1.00, 0.00, -0.00, -1.00, 375.1, 126.0)"> </text><text xml:space="preserve" font-family="Helvetica-Light" font-size="65.0" fill="#FEFFFF" transform="matrix(1.00, 0.00, -0.00, -1.00, 393.2, 126.0)">@</text><text xml:space="preserve" font-family="Helvetica-Light" font-size="65.0" fill="#FEFFFF" transform="matrix(1.00, 0.00, -0.00, -1.00, 445.2, 126.0)"> </text><text xml:space="preserve" font-family="Helvetica-Light" font-size="65.0" fill="#FEFFFF" transform="matrix(1.00, 0.00, -0.00, -1.00, 463.3, 126.0)">C</text><text xml:space="preserve" font-family="Helvetica-Light" font-size="65.0" fill="#FEFFFF" transform="matrix(1.00, 0.00, -0.00, -1.00, 510.2, 126.0)">o</text><text xml:space="preserve" font-family="Helvetica-Light" font-size="65.0" fill="#FEFFFF" transform="matrix(1.00, 0.00, -0.00, -1.00, 546.3, 126.0)">d</text><text xml:space="preserve" font-family="Helvetica-Light" font-size="65.0" fill="#FEFFFF" transform="matrix(1.00, 0.00, -0.00, -1.00, 586.0, 126.0)">e</text><text xml:space="preserve" font-family="Helvetica-Light" font-size="65.0" fill="#FEFFFF" transform="matrix(1.00, 0.00, -0.00, -1.00, 622.2, 126.0)">r</text><text xml:space="preserve" font-family="Helvetica-Light" font-size="65.0" fill="#FEFFFF" transform="matrix(1.00, 0.00, -0.00, -1.00, 643.8, 126.0)"> </text><text xml:space="preserve" font-family="Helvetica-Light" font-size="65.0" fill="#FEFFFF" transform="matrix(1.00, 0.00, -0.00, -1.00, 661.9, 126.0)">D</text><text xml:space="preserve" font-family="Helvetica-Light" font-size="65.0" fill="#FEFFFF" transform="matrix(1.00, 0.00, -0.00, -1.00, 708.8, 126.0)">o</text><text xml:space="preserve" font-family="Helvetica-Light" font-size="65.0" fill="#FEFFFF" transform="matrix(1.00, 0.00, -0.00, -1.00, 745.0, 126.0)">j</text><text xml:space="preserve" font-family="Helvetica-Light" font-size="65.0" fill="#FEFFFF" transform="matrix(1.00, 0.00, -0.00, -1.00, 759.4, 126.0)">o</text></g></svg>