<?xml version="1.0" encoding="UTF-8" standalone="no"?><svg xmlns="http://www.w3.org/2000/svg" xmlns:xlink="http://www.w3.org/1999/xlink" clip-rule="evenodd" stroke-miterlimit="4.00" viewBox="0 0 1024 768"><desc>SVG generated by Keynote</desc><defs></defs><g transform="matrix(1.00, 0.00, -0.00, -1.00, 0.0, 768.0)"><path d="M 0.0 768.0 L 1024.0 768.0 L 1024.0 0.0 L 0.0 0.0 Z M 0.0 768.0 " fill="#000000"></path><text xml:space="preserve" font-family="Helvetica-Light" font-size="90.0" fill="#A6AAA8" transform="matrix(1.00, 0.00, -0.00, -1.00, 221.0, 513.0)">L</text><text xml:space="preserve" font-family="Helvetica-Light" font-size="90.0" fill="#A6AAA8" transform="matrix(1.00, 0.00, -0.00, -1.00, 271.0, 513.0)">a</text><text xml:space="preserve" font-family="Helvetica-Light" font-size="90.0" fill="#A6AAA8" transform="matrix(1.00, 0.00, -0.00, -1.00, 321.1, 513.0)">n</text><text xml:space="preserve" font-family="Helvetica-Light" font-size="90.0" fill="#A6AAA8" transform="matrix(1.00, 0.00, -0.00, -1.00, 371.1, 513.0)">g</text><text xml:space="preserve" font-family="Helvetica-Light" font-size="90.0" fill="#A6AAA8" transform="matrix(1.00, 0.00, -0.00, -1.00, 426.1, 513.0)">u</text><text xml:space="preserve" font-family="Helvetica-Light" font-size="90.0" fill="#A6AAA8" transform="matrix(1.00, 0.00, -0.00, -1.00, 476.1, 513.0)">a</text><text xml:space="preserve" font-family="Helvetica-Light" font-size="90.0" fill="#A6AAA8" transform="matrix(1.00, 0.00, -0.00, -1.00, 526.2, 513.0)">g</text><text xml:space="preserve" font-family="Helvetica-Light" font-size="90.0" fill="#A6AAA8" transform="matrix(1.00, 0.00, -0.00, -1.00, 581.2, 513.0)">e</text><text xml:space="preserve" font-family="Helvetica-Light" font-size="90.0" fill="#A6AAA8" transform="matrix(1.00, 0.00, -0.00, -1.00, 631.2, 513.0)"> </text><g><clipPath id="clip-12"><path d="M 220.4 532.9 L 631.6 532.9 L 631.6 539.7 L 220.4 539.7 Z M 220.4 532.9 "></path></clipPath><g clip-path="url(#clip-12)"><path d="M 4.0 67.7 L 414.2 67.7 " fill="none" stroke="#A6AAA8" stroke-width="4.75" stroke-miterlimit="0.00" transform="matrix(1.00, 0.00, 0.00, -1.00, 217.4, 604.0)"></path></g></g><text xml:space="preserve" font-family="Helvetica-Bold" font-weight="bold" font-size="90.0" fill="#FEFFFF" transform="matrix(1.00, 0.00, -0.00, -1.00, 221.0, 351.0)">B</text><text xml:space="preserve" font-family="Helvetica-Bold" font-weight="bold" font-size="90.0" fill="#FEFFFF" transform="matrix(1.00, 0.00, -0.00, -1.00, 286.0, 351.0)">u</text><text xml:space="preserve" font-family="Helvetica-Bold" font-weight="bold" font-size="90.0" fill="#FEFFFF" transform="matrix(1.00, 0.00, -0.00, -1.00, 341.0, 351.0)">i</text><text xml:space="preserve" font-family="Helvetica-Bold" font-weight="bold" font-size="90.0" fill="#FEFFFF" transform="matrix(1.00, 0.00, -0.00, -1.00, 366.0, 351.0)">l</text><text xml:space="preserve" font-family="Helvetica-Bold" font-weight="bold" font-size="90.0" fill="#FEFFFF" transform="matrix(1.00, 0.00, -0.00, -1.00, 391.1, 351.0)">d</text><text xml:space="preserve" font-family="Helvetica-Light" font-size="90.0" fill="#FEFFFF" transform="matrix(1.00, 0.00, -0.00, -1.00, 221.0, 189.0)">D</text><text xml:space="preserve" font-family="Helvetica-Light" font-size="90.0" fill="#FEFFFF" transform="matrix(1.00, 0.00, -0.00, -1.00, 286.0, 189.0)">e</text><text xml:space="preserve" font-family="Helvetica-Light" font-size="90.0" fill="#FEFFFF" transform="matrix(1.00, 0.00, -0.00, -1.00, 336.0, 189.0)">p</text><text xml:space="preserve" font-family="Helvetica-Light" font-size="90.0" fill="#FEFFFF" transform="matrix(1.00, 0.00, -0.00, -1.00, 391.0, 189.0)">e</text><text xml:space="preserve" font-family="Helvetica-Light" font-size="90.0" fill="#FEFFFF" transform="matrix(1.00, 0.00, -0.00, -1.00, 441.0, 189.0)">n</text><text xml:space="preserve" font-family="Helvetica-Light" font-size="90.0" fill="#FEFFFF" transform="matrix(1.00, 0.00, -0.00, -1.00, 491.1, 189.0)">d</text><text xml:space="preserve" font-family="Helvetica-Light" font-size="90.0" fill="#FEFFFF" transform="matrix(1.00, 0.00, -0.00, -1.00, 546.1, 189.0)">e</text><text xml:space="preserve" font-family="Helvetica-Light" font-size="90.0" fill="#FEFFFF" transform="matrix(1.00, 0.00, -0.00, -1.00, 596.1, 189.0)">n</text><text xml:space="preserve" font-family="Helvetica-Light" font-size="90.0" fill="#FEFFFF" transform="matrix(1.00, 0.00, -0.00, -1.00, 646.2, 189.0)">c</text><text xml:space="preserve" font-family="Helvetica-Light" font-size="90.0" fill="#FEFFFF" transform="matrix(1.00, 0.00, -0.00, -1.00, 696.2, 189.0)">i</text><text xml:space="preserve" font-family="Helvetica-Light" font-size="90.0" fill="#FEFFFF" transform="matrix(1.00, 0.00, -0.00, -1.00, 716.2, 189.0)">e</text><text xml:space="preserve" font-family="Helvetica-Light" font-size="90.0" fill="#FEFFFF" transform="matrix(1.00, 0.00, -0.00, -1.00, 766.2, 189.0)">s</text></g></svg>