<?xml version="1.0" encoding="UTF-8" standalone="no"?><svg xmlns="http://www.w3.org/2000/svg" xmlns:xlink="http://www.w3.org/1999/xlink" clip-rule="evenodd" stroke-miterlimit="4.00" viewBox="0 0 1024 768"><desc>SVG generated by Keynote</desc><defs></defs><g transform="matrix(1.00, 0.00, -0.00, -1.00, 0.0, 768.0)"><path d="M 0.0 768.0 L 1024.0 768.0 L 1024.0 0.0 L 0.0 0.0 Z M 0.0 768.0 " fill="#000000"></path><text xml:space="preserve" font-family="Helvetica-Light" font-size="110.0" fill="#FEFFFF" transform="matrix(1.00, 0.00, -0.00, -1.00, 66.0, 343.0)">I</text><text xml:space="preserve" font-family="Helvetica-Light" font-size="110.0" fill="#FEFFFF" transform="matrix(1.00, 0.00, -0.00, -1.00, 96.6, 343.0)">n</text><text xml:space="preserve" font-family="Helvetica-Light" font-size="110.0" fill="#FEFFFF" transform="matrix(1.00, 0.00, -0.00, -1.00, 157.7, 343.0)"> </text><text xml:space="preserve" font-family="Helvetica-Light" font-size="110.0" fill="#FEFFFF" transform="matrix(1.00, 0.00, -0.00, -1.00, 188.3, 343.0)">t</text><text xml:space="preserve" font-family="Helvetica-Light" font-size="110.0" fill="#FEFFFF" transform="matrix(1.00, 0.00, -0.00, -1.00, 218.9, 343.0)">h</text><text xml:space="preserve" font-family="Helvetica-Light" font-size="110.0" fill="#FEFFFF" transform="matrix(1.00, 0.00, -0.00, -1.00, 280.1, 343.0)">e</text><text xml:space="preserve" font-family="Helvetica-Light" font-size="110.0" fill="#FEFFFF" transform="matrix(1.00, 0.00, -0.00, -1.00, 341.2, 343.0)"> </text><text xml:space="preserve" font-family="Helvetica-Light" font-size="110.0" fill="#FEFFFF" transform="matrix(1.00, 0.00, -0.00, -1.00, 371.8, 343.0)">b</text><text xml:space="preserve" font-family="Helvetica-Light" font-size="110.0" fill="#FEFFFF" transform="matrix(1.00, 0.00, -0.00, -1.00, 439.0, 343.0)">e</text><text xml:space="preserve" font-family="Helvetica-Light" font-size="110.0" fill="#FEFFFF" transform="matrix(1.00, 0.00, -0.00, -1.00, 500.2, 343.0)">g</text><text xml:space="preserve" font-family="Helvetica-Light" font-size="110.0" fill="#FEFFFF" transform="matrix(1.00, 0.00, -0.00, -1.00, 567.4, 343.0)">i</text><text xml:space="preserve" font-family="Helvetica-Light" font-size="110.0" fill="#FEFFFF" transform="matrix(1.00, 0.00, -0.00, -1.00, 591.8, 343.0)">n</text><text xml:space="preserve" font-family="Helvetica-Light" font-size="110.0" fill="#FEFFFF" transform="matrix(1.00, 0.00, -0.00, -1.00, 653.0, 343.0)">n</text><text xml:space="preserve" font-family="Helvetica-Light" font-size="110.0" fill="#FEFFFF" transform="matrix(1.00, 0.00, -0.00, -1.00, 714.1, 343.0)">i</text><text xml:space="preserve" font-family="Helvetica-Light" font-size="110.0" fill="#FEFFFF" transform="matrix(1.00, 0.00, -0.00, -1.00, 738.5, 343.0)">n</text><text xml:space="preserve" font-family="Helvetica-Light" font-size="110.0" fill="#FEFFFF" transform="matrix(1.00, 0.00, -0.00, -1.00, 799.7, 343.0)">g</text><text xml:space="preserve" font-family="Helvetica-Light" font-size="110.0" fill="#FEFFFF" transform="matrix(1.00, 0.00, -0.00, -1.00, 866.9, 343.0)">.</text><text xml:space="preserve" font-family="Helvetica-Light" font-size="110.0" fill="#FEFFFF" transform="matrix(1.00, 0.00, -0.00, -1.00, 897.5, 343.0)">.</text><text xml:space="preserve" font-family="Helvetica-Light" font-size="110.0" fill="#FEFFFF" transform="matrix(1.00, 0.00, -0.00, -1.00, 928.1, 343.0)">.</text></g></svg>