<?xml version="1.0" encoding="UTF-8" standalone="no"?><svg xmlns="http://www.w3.org/2000/svg" xmlns:xlink="http://www.w3.org/1999/xlink" clip-rule="evenodd" stroke-miterlimit="4.00" viewBox="0 0 1024 768"><desc>SVG generated by Keynote</desc><defs></defs><g transform="matrix(1.00, 0.00, -0.00, -1.00, 0.0, 768.0)"><path d="M 0.0 768.0 L 1024.0 768.0 L 1024.0 0.0 L 0.0 0.0 Z M 0.0 768.0 " fill="#000000"></path><text xml:space="preserve" font-family="Helvetica-Light" font-size="52.0" fill="#DCDDE0" transform="matrix(1.00, 0.00, -0.00, -1.00, 44.0, 551.0)">H</text><text xml:space="preserve" font-family="Helvetica-Light" font-size="52.0" fill="#DCDDE0" transform="matrix(1.00, 0.00, -0.00, -1.00, 81.5, 551.0)">o</text><text xml:space="preserve" font-family="Helvetica-Light" font-size="52.0" fill="#DCDDE0" transform="matrix(1.00, 0.00, -0.00, -1.00, 110.5, 551.0)">w</text><text xml:space="preserve" font-family="Helvetica-Light" font-size="52.0" fill="#DCDDE0" transform="matrix(1.00, 0.00, -0.00, -1.00, 148.0, 551.0)"> </text><text xml:space="preserve" font-family="Helvetica-Light" font-size="52.0" fill="#DCDDE0" transform="matrix(1.00, 0.00, -0.00, -1.00, 162.5, 551.0)">d</text><text xml:space="preserve" font-family="Helvetica-Light" font-size="52.0" fill="#DCDDE0" transform="matrix(1.00, 0.00, -0.00, -1.00, 194.2, 551.0)">o</text><text xml:space="preserve" font-family="Helvetica-Light" font-size="52.0" fill="#DCDDE0" transform="matrix(1.00, 0.00, -0.00, -1.00, 223.1, 551.0)"> </text><text xml:space="preserve" font-family="Helvetica-Light" font-size="52.0" fill="#DCDDE0" transform="matrix(1.00, 0.00, -0.00, -1.00, 237.6, 551.0)">w</text><text xml:space="preserve" font-family="Helvetica-Light" font-size="52.0" fill="#DCDDE0" transform="matrix(1.00, 0.00, -0.00, -1.00, 275.1, 551.0)">e</text><text xml:space="preserve" font-family="Helvetica-Light" font-size="52.0" fill="#DCDDE0" transform="matrix(1.00, 0.00, -0.00, -1.00, 304.1, 551.0)"> </text><text xml:space="preserve" font-family="Helvetica-Light" font-size="52.0" fill="#DCDDE0" transform="matrix(1.00, 0.00, -0.00, -1.00, 318.5, 551.0)">m</text><text xml:space="preserve" font-family="Helvetica-Light" font-size="52.0" fill="#DCDDE0" transform="matrix(1.00, 0.00, -0.00, -1.00, 361.8, 551.0)">a</text><text xml:space="preserve" font-family="Helvetica-Light" font-size="52.0" fill="#DCDDE0" transform="matrix(1.00, 0.00, -0.00, -1.00, 390.7, 551.0)">k</text><text xml:space="preserve" font-family="Helvetica-Light" font-size="52.0" fill="#DCDDE0" transform="matrix(1.00, 0.00, -0.00, -1.00, 416.7, 551.0)">e</text><text xml:space="preserve" font-family="Helvetica-Light" font-size="52.0" fill="#FEFFFF" transform="matrix(1.00, 0.00, -0.00, -1.00, 445.6, 551.0)"> </text><text xml:space="preserve" font-family="Helvetica-Bold" font-weight="bold" font-size="52.0" fill="#FEFFFF" transform="matrix(1.00, 0.00, -0.00, -1.00, 460.1, 551.0)">t</text><text xml:space="preserve" font-family="Helvetica-Bold" font-weight="bold" font-size="52.0" fill="#FEFFFF" transform="matrix(1.00, 0.00, -0.00, -1.00, 477.4, 551.0)">h</text><text xml:space="preserve" font-family="Helvetica-Bold" font-weight="bold" font-size="52.0" fill="#FEFFFF" transform="matrix(1.00, 0.00, -0.00, -1.00, 509.2, 551.0)">e</text><text xml:space="preserve" font-family="Helvetica-Bold" font-weight="bold" font-size="52.0" fill="#FEFFFF" transform="matrix(1.00, 0.00, -0.00, -1.00, 538.1, 551.0)"> </text><text xml:space="preserve" font-family="Helvetica-Bold" font-weight="bold" font-size="52.0" fill="#FEFFFF" transform="matrix(1.00, 0.00, -0.00, -1.00, 552.5, 551.0)">a</text><text xml:space="preserve" font-family="Helvetica-Bold" font-weight="bold" font-size="52.0" fill="#FEFFFF" transform="matrix(1.00, 0.00, -0.00, -1.00, 581.5, 551.0)">p</text><text xml:space="preserve" font-family="Helvetica-Bold" font-weight="bold" font-size="52.0" fill="#FEFFFF" transform="matrix(1.00, 0.00, -0.00, -1.00, 613.2, 551.0)">p</text><text xml:space="preserve" font-family="Helvetica-Light" font-size="52.0" fill="#FEFFFF" transform="matrix(1.00, 0.00, -0.00, -1.00, 645.0, 551.0)">?</text><text xml:space="preserve" font-family="Helvetica-Light" font-size="52.0" fill="#FEFFFF" transform="matrix(1.00, 0.00, -0.00, -1.00, 671.0, 551.0)"> </text><text xml:space="preserve" font-family="Helvetica-Light" font-size="52.0" fill="#DCDDE0" transform="matrix(1.00, 0.00, -0.00, -1.00, 44.0, 427.0)">H</text><text xml:space="preserve" font-family="Helvetica-Light" font-size="52.0" fill="#DCDDE0" transform="matrix(1.00, 0.00, -0.00, -1.00, 81.5, 427.0)">o</text><text xml:space="preserve" font-family="Helvetica-Light" font-size="52.0" fill="#DCDDE0" transform="matrix(1.00, 0.00, -0.00, -1.00, 110.5, 427.0)">w</text><text xml:space="preserve" font-family="Helvetica-Light" font-size="52.0" fill="#DCDDE0" transform="matrix(1.00, 0.00, -0.00, -1.00, 148.0, 427.0)"> </text><text xml:space="preserve" font-family="Helvetica-Light" font-size="52.0" fill="#DCDDE0" transform="matrix(1.00, 0.00, -0.00, -1.00, 162.5, 427.0)">d</text><text xml:space="preserve" font-family="Helvetica-Light" font-size="52.0" fill="#DCDDE0" transform="matrix(1.00, 0.00, -0.00, -1.00, 194.2, 427.0)">o</text><text xml:space="preserve" font-family="Helvetica-Light" font-size="52.0" fill="#DCDDE0" transform="matrix(1.00, 0.00, -0.00, -1.00, 223.1, 427.0)"> </text><text xml:space="preserve" font-family="Helvetica-Light" font-size="52.0" fill="#DCDDE0" transform="matrix(1.00, 0.00, -0.00, -1.00, 237.6, 427.0)">w</text><text xml:space="preserve" font-family="Helvetica-Light" font-size="52.0" fill="#DCDDE0" transform="matrix(1.00, 0.00, -0.00, -1.00, 275.1, 427.0)">e</text><text xml:space="preserve" font-family="Helvetica-Light" font-size="52.0" fill="#DCDDE0" transform="matrix(1.00, 0.00, -0.00, -1.00, 304.1, 427.0)"> </text><text xml:space="preserve" font-family="Helvetica-Light" font-size="52.0" fill="#DCDDE0" transform="matrix(1.00, 0.00, -0.00, -1.00, 318.5, 427.0)">m</text><text xml:space="preserve" font-family="Helvetica-Light" font-size="52.0" fill="#DCDDE0" transform="matrix(1.00, 0.00, -0.00, -1.00, 361.8, 427.0)">a</text><text xml:space="preserve" font-family="Helvetica-Light" font-size="52.0" fill="#DCDDE0" transform="matrix(1.00, 0.00, -0.00, -1.00, 390.7, 427.0)">k</text><text xml:space="preserve" font-family="Helvetica-Light" font-size="52.0" fill="#DCDDE0" transform="matrix(1.00, 0.00, -0.00, -1.00, 416.7, 427.0)">e</text><text xml:space="preserve" font-family="Helvetica-Light" font-size="52.0" fill="#FEFFFF" transform="matrix(1.00, 0.00, -0.00, -1.00, 445.6, 427.0)"> </text><text xml:space="preserve" font-family="Helvetica-Bold" font-weight="bold" font-size="52.0" fill="#FEFFFF" transform="matrix(1.00, 0.00, -0.00, -1.00, 460.1, 427.0)">t</text><text xml:space="preserve" font-family="Helvetica-Bold" font-weight="bold" font-size="52.0" fill="#FEFFFF" transform="matrix(1.00, 0.00, -0.00, -1.00, 477.4, 427.0)">h</text><text xml:space="preserve" font-family="Helvetica-Bold" font-weight="bold" font-size="52.0" fill="#FEFFFF" transform="matrix(1.00, 0.00, -0.00, -1.00, 509.2, 427.0)">e</text><text xml:space="preserve" font-family="Helvetica-Bold" font-weight="bold" font-size="52.0" fill="#FEFFFF" transform="matrix(1.00, 0.00, -0.00, -1.00, 538.1, 427.0)"> </text><text xml:space="preserve" font-family="Helvetica-Bold" font-weight="bold" font-size="52.0" fill="#FEFFFF" transform="matrix(1.00, 0.00, -0.00, -1.00, 552.5, 427.0)">a</text><text xml:space="preserve" font-family="Helvetica-Bold" font-weight="bold" font-size="52.0" fill="#FEFFFF" transform="matrix(1.00, 0.00, -0.00, -1.00, 581.5, 427.0)">p</text><text xml:space="preserve" font-family="Helvetica-Bold" font-weight="bold" font-size="52.0" fill="#FEFFFF" transform="matrix(1.00, 0.00, -0.00, -1.00, 613.2, 427.0)">p</text><text xml:space="preserve" font-family="Helvetica-Bold" font-weight="bold" font-size="52.0" fill="#FEFFFF" transform="matrix(1.00, 0.00, -0.00, -1.00, 645.0, 427.0)"> </text><text xml:space="preserve" font-family="Helvetica-Bold" font-weight="bold" font-size="52.0" fill="#FEFFFF" transform="matrix(1.00, 0.00, -0.00, -1.00, 659.4, 427.0)">w</text><text xml:space="preserve" font-family="Helvetica-Bold" font-weight="bold" font-size="52.0" fill="#FEFFFF" transform="matrix(1.00, 0.00, -0.00, -1.00, 699.9, 427.0)">o</text><text xml:space="preserve" font-family="Helvetica-Bold" font-weight="bold" font-size="52.0" fill="#FEFFFF" transform="matrix(1.00, 0.00, -0.00, -1.00, 731.6, 427.0)">r</text><text xml:space="preserve" font-family="Helvetica-Bold" font-weight="bold" font-size="52.0" fill="#FEFFFF" transform="matrix(1.00, 0.00, -0.00, -1.00, 751.9, 427.0)">k</text><text xml:space="preserve" font-family="Helvetica-Light" font-size="52.0" fill="#FEFFFF" transform="matrix(1.00, 0.00, -0.00, -1.00, 780.8, 427.0)">?</text><text xml:space="preserve" font-family="Helvetica-Light" font-size="52.0" fill="#FEFFFF" transform="matrix(1.00, 0.00, -0.00, -1.00, 806.8, 427.0)"> </text><text xml:space="preserve" font-family="Helvetica-Light" font-size="52.0" fill="#DCDDE0" transform="matrix(1.00, 0.00, -0.00, -1.00, 44.0, 303.0)">H</text><text xml:space="preserve" font-family="Helvetica-Light" font-size="52.0" fill="#DCDDE0" transform="matrix(1.00, 0.00, -0.00, -1.00, 81.5, 303.0)">o</text><text xml:space="preserve" font-family="Helvetica-Light" font-size="52.0" fill="#DCDDE0" transform="matrix(1.00, 0.00, -0.00, -1.00, 110.5, 303.0)">w</text><text xml:space="preserve" font-family="Helvetica-Light" font-size="52.0" fill="#DCDDE0" transform="matrix(1.00, 0.00, -0.00, -1.00, 148.0, 303.0)"> </text><text xml:space="preserve" font-family="Helvetica-Light" font-size="52.0" fill="#DCDDE0" transform="matrix(1.00, 0.00, -0.00, -1.00, 162.5, 303.0)">d</text><text xml:space="preserve" font-family="Helvetica-Light" font-size="52.0" fill="#DCDDE0" transform="matrix(1.00, 0.00, -0.00, -1.00, 194.2, 303.0)">o</text><text xml:space="preserve" font-family="Helvetica-Light" font-size="52.0" fill="#DCDDE0" transform="matrix(1.00, 0.00, -0.00, -1.00, 223.1, 303.0)"> </text><text xml:space="preserve" font-family="Helvetica-Light" font-size="52.0" fill="#DCDDE0" transform="matrix(1.00, 0.00, -0.00, -1.00, 237.6, 303.0)">w</text><text xml:space="preserve" font-family="Helvetica-Light" font-size="52.0" fill="#DCDDE0" transform="matrix(1.00, 0.00, -0.00, -1.00, 275.1, 303.0)">e</text><text xml:space="preserve" font-family="Helvetica-Light" font-size="52.0" fill="#DCDDE0" transform="matrix(1.00, 0.00, -0.00, -1.00, 304.1, 303.0)"> </text><text xml:space="preserve" font-family="Helvetica-Light" font-size="52.0" fill="#DCDDE0" transform="matrix(1.00, 0.00, -0.00, -1.00, 318.5, 303.0)">m</text><text xml:space="preserve" font-family="Helvetica-Light" font-size="52.0" fill="#DCDDE0" transform="matrix(1.00, 0.00, -0.00, -1.00, 361.8, 303.0)">a</text><text xml:space="preserve" font-family="Helvetica-Light" font-size="52.0" fill="#DCDDE0" transform="matrix(1.00, 0.00, -0.00, -1.00, 390.7, 303.0)">k</text><text xml:space="preserve" font-family="Helvetica-Light" font-size="52.0" fill="#DCDDE0" transform="matrix(1.00, 0.00, -0.00, -1.00, 416.7, 303.0)">e</text><text xml:space="preserve" font-family="Helvetica-Light" font-size="52.0" fill="#DCDDE0" transform="matrix(1.00, 0.00, -0.00, -1.00, 445.6, 303.0)"> </text><text xml:space="preserve" font-family="Helvetica-Bold" font-weight="bold" font-size="52.0" fill="#FEFFFF" transform="matrix(1.00, 0.00, -0.00, -1.00, 460.1, 303.0)">s</text><text xml:space="preserve" font-family="Helvetica-Bold" font-weight="bold" font-size="52.0" fill="#FEFFFF" transform="matrix(1.00, 0.00, -0.00, -1.00, 489.0, 303.0)">u</text><text xml:space="preserve" font-family="Helvetica-Bold" font-weight="bold" font-size="52.0" fill="#FEFFFF" transform="matrix(1.00, 0.00, -0.00, -1.00, 520.8, 303.0)">r</text><text xml:space="preserve" font-family="Helvetica-Bold" font-weight="bold" font-size="52.0" fill="#FEFFFF" transform="matrix(1.00, 0.00, -0.00, -1.00, 541.0, 303.0)">e</text><text xml:space="preserve" font-family="Helvetica-Bold" font-weight="bold" font-size="52.0" fill="#FEFFFF" transform="matrix(1.00, 0.00, -0.00, -1.00, 570.0, 303.0)"> </text><text xml:space="preserve" font-family="Helvetica-Bold" font-weight="bold" font-size="52.0" fill="#FEFFFF" transform="matrix(1.00, 0.00, -0.00, -1.00, 584.4, 303.0)">t</text><text xml:space="preserve" font-family="Helvetica-Bold" font-weight="bold" font-size="52.0" fill="#FEFFFF" transform="matrix(1.00, 0.00, -0.00, -1.00, 601.7, 303.0)">h</text><text xml:space="preserve" font-family="Helvetica-Bold" font-weight="bold" font-size="52.0" fill="#FEFFFF" transform="matrix(1.00, 0.00, -0.00, -1.00, 633.5, 303.0)">e</text><text xml:space="preserve" font-family="Helvetica-Bold" font-weight="bold" font-size="52.0" fill="#FEFFFF" transform="matrix(1.00, 0.00, -0.00, -1.00, 662.4, 303.0)"> </text><text xml:space="preserve" font-family="Helvetica-Bold" font-weight="bold" font-size="52.0" fill="#FEFFFF" transform="matrix(1.00, 0.00, -0.00, -1.00, 676.8, 303.0)">a</text><text xml:space="preserve" font-family="Helvetica-Bold" font-weight="bold" font-size="52.0" fill="#FEFFFF" transform="matrix(1.00, 0.00, -0.00, -1.00, 705.8, 303.0)">p</text><text xml:space="preserve" font-family="Helvetica-Bold" font-weight="bold" font-size="52.0" fill="#FEFFFF" transform="matrix(1.00, 0.00, -0.00, -1.00, 737.5, 303.0)">p</text><text xml:space="preserve" font-family="Helvetica-Bold" font-weight="bold" font-size="52.0" fill="#FEFFFF" transform="matrix(1.00, 0.00, -0.00, -1.00, 769.3, 303.0)"> </text><text xml:space="preserve" font-family="Helvetica-Bold" font-weight="bold" font-size="52.0" fill="#FEFFFF" transform="matrix(1.00, 0.00, -0.00, -1.00, 783.7, 303.0)">w</text><text xml:space="preserve" font-family="Helvetica-Bold" font-weight="bold" font-size="52.0" fill="#FEFFFF" transform="matrix(1.00, 0.00, -0.00, -1.00, 824.1, 303.0)">o</text><text xml:space="preserve" font-family="Helvetica-Bold" font-weight="bold" font-size="52.0" fill="#FEFFFF" transform="matrix(1.00, 0.00, -0.00, -1.00, 855.9, 303.0)">r</text><text xml:space="preserve" font-family="Helvetica-Bold" font-weight="bold" font-size="52.0" fill="#FEFFFF" transform="matrix(1.00, 0.00, -0.00, -1.00, 876.1, 303.0)">k</text><text xml:space="preserve" font-family="Helvetica-Bold" font-weight="bold" font-size="52.0" fill="#FEFFFF" transform="matrix(1.00, 0.00, -0.00, -1.00, 905.1, 303.0)">s</text><text xml:space="preserve" font-family="Helvetica-Light" font-size="52.0" fill="#FEFFFF" transform="matrix(1.00, 0.00, -0.00, -1.00, 934.0, 303.0)">?</text><text xml:space="preserve" font-family="Helvetica-Light" font-size="52.0" fill="#FEFFFF" transform="matrix(1.00, 0.00, -0.00, -1.00, 960.0, 303.0)"> </text><text xml:space="preserve" font-family="Helvetica-Light" font-size="52.0" fill="#DCDDE0" transform="matrix(1.00, 0.00, -0.00, -1.00, 44.0, 179.0)">H</text><text xml:space="preserve" font-family="Helvetica-Light" font-size="52.0" fill="#DCDDE0" transform="matrix(1.00, 0.00, -0.00, -1.00, 81.5, 179.0)">o</text><text xml:space="preserve" font-family="Helvetica-Light" font-size="52.0" fill="#DCDDE0" transform="matrix(1.00, 0.00, -0.00, -1.00, 110.5, 179.0)">w</text><text xml:space="preserve" font-family="Helvetica-Light" font-size="52.0" fill="#DCDDE0" transform="matrix(1.00, 0.00, -0.00, -1.00, 148.0, 179.0)"> </text><text xml:space="preserve" font-family="Helvetica-Light" font-size="52.0" fill="#DCDDE0" transform="matrix(1.00, 0.00, -0.00, -1.00, 162.5, 179.0)">d</text><text xml:space="preserve" font-family="Helvetica-Light" font-size="52.0" fill="#DCDDE0" transform="matrix(1.00, 0.00, -0.00, -1.00, 194.2, 179.0)">o</text><text xml:space="preserve" font-family="Helvetica-Light" font-size="52.0" fill="#DCDDE0" transform="matrix(1.00, 0.00, -0.00, -1.00, 223.1, 179.0)"> </text><text xml:space="preserve" font-family="Helvetica-Light" font-size="52.0" fill="#DCDDE0" transform="matrix(1.00, 0.00, -0.00, -1.00, 237.6, 179.0)">w</text><text xml:space="preserve" font-family="Helvetica-Light" font-size="52.0" fill="#DCDDE0" transform="matrix(1.00, 0.00, -0.00, -1.00, 275.1, 179.0)">e</text><text xml:space="preserve" font-family="Helvetica-Light" font-size="52.0" fill="#DCDDE0" transform="matrix(1.00, 0.00, -0.00, -1.00, 304.1, 179.0)"> </text><text xml:space="preserve" font-family="Helvetica-Light" font-size="52.0" fill="#DCDDE0" transform="matrix(1.00, 0.00, -0.00, -1.00, 318.5, 179.0)">m</text><text xml:space="preserve" font-family="Helvetica-Light" font-size="52.0" fill="#DCDDE0" transform="matrix(1.00, 0.00, -0.00, -1.00, 361.8, 179.0)">a</text><text xml:space="preserve" font-family="Helvetica-Light" font-size="52.0" fill="#DCDDE0" transform="matrix(1.00, 0.00, -0.00, -1.00, 390.7, 179.0)">k</text><text xml:space="preserve" font-family="Helvetica-Light" font-size="52.0" fill="#DCDDE0" transform="matrix(1.00, 0.00, -0.00, -1.00, 416.7, 179.0)">e</text><text xml:space="preserve" font-family="Helvetica-Light" font-size="52.0" fill="#DCDDE0" transform="matrix(1.00, 0.00, -0.00, -1.00, 445.6, 179.0)"> </text><text xml:space="preserve" font-family="Helvetica-Bold" font-weight="bold" font-size="52.0" fill="#FEFFFF" transform="matrix(1.00, 0.00, -0.00, -1.00, 460.1, 179.0)">t</text><text xml:space="preserve" font-family="Helvetica-Bold" font-weight="bold" font-size="52.0" fill="#FEFFFF" transform="matrix(1.00, 0.00, -0.00, -1.00, 477.4, 179.0)">h</text><text xml:space="preserve" font-family="Helvetica-Bold" font-weight="bold" font-size="52.0" fill="#FEFFFF" transform="matrix(1.00, 0.00, -0.00, -1.00, 509.2, 179.0)">e</text><text xml:space="preserve" font-family="Helvetica-Bold" font-weight="bold" font-size="52.0" fill="#FEFFFF" transform="matrix(1.00, 0.00, -0.00, -1.00, 538.1, 179.0)"> </text><text xml:space="preserve" font-family="Helvetica-Bold" font-weight="bold" font-size="52.0" fill="#FEFFFF" transform="matrix(1.00, 0.00, -0.00, -1.00, 552.5, 179.0)">a</text><text xml:space="preserve" font-family="Helvetica-Bold" font-weight="bold" font-size="52.0" fill="#FEFFFF" transform="matrix(1.00, 0.00, -0.00, -1.00, 581.5, 179.0)">p</text><text xml:space="preserve" font-family="Helvetica-Bold" font-weight="bold" font-size="52.0" fill="#FEFFFF" transform="matrix(1.00, 0.00, -0.00, -1.00, 613.2, 179.0)">p</text><text xml:space="preserve" font-family="Helvetica-Bold" font-weight="bold" font-size="52.0" fill="#FEFFFF" transform="matrix(1.00, 0.00, -0.00, -1.00, 645.0, 179.0)"> </text><text xml:space="preserve" font-family="Helvetica-Bold" font-weight="bold" font-size="52.0" fill="#FEFFFF" transform="matrix(1.00, 0.00, -0.00, -1.00, 659.4, 179.0)">c</text><text xml:space="preserve" font-family="Helvetica-Bold" font-weight="bold" font-size="52.0" fill="#FEFFFF" transform="matrix(1.00, 0.00, -0.00, -1.00, 688.3, 179.0)">o</text><text xml:space="preserve" font-family="Helvetica-Bold" font-weight="bold" font-size="52.0" fill="#FEFFFF" transform="matrix(1.00, 0.00, -0.00, -1.00, 720.1, 179.0)">n</text><text xml:space="preserve" font-family="Helvetica-Bold" font-weight="bold" font-size="52.0" fill="#FEFFFF" transform="matrix(1.00, 0.00, -0.00, -1.00, 751.9, 179.0)">s</text><text xml:space="preserve" font-family="Helvetica-Bold" font-weight="bold" font-size="52.0" fill="#FEFFFF" transform="matrix(1.00, 0.00, -0.00, -1.00, 780.8, 179.0)">i</text><text xml:space="preserve" font-family="Helvetica-Bold" font-weight="bold" font-size="52.0" fill="#FEFFFF" transform="matrix(1.00, 0.00, -0.00, -1.00, 795.2, 179.0)">s</text><text xml:space="preserve" font-family="Helvetica-Bold" font-weight="bold" font-size="52.0" fill="#FEFFFF" transform="matrix(1.00, 0.00, -0.00, -1.00, 824.1, 179.0)">t</text><text xml:space="preserve" font-family="Helvetica-Bold" font-weight="bold" font-size="52.0" fill="#FEFFFF" transform="matrix(1.00, 0.00, -0.00, -1.00, 841.5, 179.0)">e</text><text xml:space="preserve" font-family="Helvetica-Bold" font-weight="bold" font-size="52.0" fill="#FEFFFF" transform="matrix(1.00, 0.00, -0.00, -1.00, 870.4, 179.0)">n</text><text xml:space="preserve" font-family="Helvetica-Bold" font-weight="bold" font-size="52.0" fill="#FEFFFF" transform="matrix(1.00, 0.00, -0.00, -1.00, 902.1, 179.0)">t</text><text xml:space="preserve" font-family="Helvetica-Light" font-size="52.0" fill="#FEFFFF" transform="matrix(1.00, 0.00, -0.00, -1.00, 919.5, 179.0)">?</text></g></svg>