<?xml version="1.0" encoding="UTF-8" standalone="no"?><svg xmlns="http://www.w3.org/2000/svg" xmlns:xlink="http://www.w3.org/1999/xlink" clip-rule="evenodd" stroke-miterlimit="4.00" viewBox="0 0 1024 768"><desc>SVG generated by Keynote</desc><defs></defs><g transform="matrix(1.00, 0.00, -0.00, -1.00, 0.0, 768.0)"><path d="M 0.0 768.0 L 1024.0 768.0 L 1024.0 0.0 L 0.0 0.0 Z M 0.0 768.0 " fill="#000000"></path><text xml:space="preserve" font-family="Helvetica-Light" font-size="95.0" fill="#FEFFFF" transform="matrix(1.00, 0.00, -0.00, -1.00, 96.0, 463.0)">g</text><text xml:space="preserve" font-family="Helvetica-Light" font-size="95.0" fill="#FEFFFF" transform="matrix(1.00, 0.00, -0.00, -1.00, 154.0, 463.0)">i</text><text xml:space="preserve" font-family="Helvetica-Light" font-size="95.0" fill="#FEFFFF" transform="matrix(1.00, 0.00, -0.00, -1.00, 175.1, 463.0)">t</text><text xml:space="preserve" font-family="Helvetica-Light" font-size="95.0" fill="#FEFFFF" transform="matrix(1.00, 0.00, -0.00, -1.00, 201.5, 463.0)">h</text><text xml:space="preserve" font-family="Helvetica-Light" font-size="95.0" fill="#FEFFFF" transform="matrix(1.00, 0.00, -0.00, -1.00, 254.4, 463.0)">u</text><text xml:space="preserve" font-family="Helvetica-Light" font-size="95.0" fill="#FEFFFF" transform="matrix(1.00, 0.00, -0.00, -1.00, 307.2, 463.0)">b</text><text xml:space="preserve" font-family="Helvetica-Light" font-size="95.0" fill="#FEFFFF" transform="matrix(1.00, 0.00, -0.00, -1.00, 365.2, 463.0)"> </text><text xml:space="preserve" font-family="Helvetica-Light" font-size="42.0" fill="#FEFFFF" transform="matrix(1.00, 0.00, -0.00, -1.00, 391.6, 463.0)"> </text><text xml:space="preserve" font-family="Helvetica-Light" font-size="95.0" fill="#FEFFFF" transform="matrix(1.00, 0.00, -0.00, -1.00, 403.3, 463.0)">/</text><text xml:space="preserve" font-family="Helvetica-Light" font-size="95.0" fill="#FEFFFF" transform="matrix(1.00, 0.00, -0.00, -1.00, 429.7, 463.0)"> </text><text xml:space="preserve" font-family="Helvetica-Light" font-size="95.0" fill="#FEFFFF" transform="matrix(1.00, 0.00, -0.00, -1.00, 456.1, 463.0)">e</text><text xml:space="preserve" font-family="Helvetica-Light" font-size="95.0" fill="#FEFFFF" transform="matrix(1.00, 0.00, -0.00, -1.00, 509.0, 463.0)">p</text><text xml:space="preserve" font-family="Helvetica-Light" font-size="95.0" fill="#FEFFFF" transform="matrix(1.00, 0.00, -0.00, -1.00, 567.0, 463.0)">i</text><text xml:space="preserve" font-family="Helvetica-Light" font-size="95.0" fill="#FEFFFF" transform="matrix(1.00, 0.00, -0.00, -1.00, 588.1, 463.0)">x</text><text xml:space="preserve" font-family="Helvetica-Light" font-size="95.0" fill="#FEFFFF" transform="matrix(1.00, 0.00, -0.00, -1.00, 635.6, 463.0)">a</text><text xml:space="preserve" font-family="Helvetica-Light" font-size="95.0" fill="#FEFFFF" transform="matrix(1.00, 0.00, -0.00, -1.00, 688.4, 463.0)"> </text><text xml:space="preserve" font-family="Helvetica-Light" font-size="95.0" fill="#FEFFFF" transform="matrix(1.00, 0.00, -0.00, -1.00, 96.0, 235.0)">t</text><text xml:space="preserve" font-family="Helvetica-Light" font-size="95.0" fill="#FEFFFF" transform="matrix(1.00, 0.00, -0.00, -1.00, 122.4, 235.0)">w</text><text xml:space="preserve" font-family="Helvetica-Light" font-size="95.0" fill="#FEFFFF" transform="matrix(1.00, 0.00, -0.00, -1.00, 191.0, 235.0)">i</text><text xml:space="preserve" font-family="Helvetica-Light" font-size="95.0" fill="#FEFFFF" transform="matrix(1.00, 0.00, -0.00, -1.00, 212.1, 235.0)">t</text><text xml:space="preserve" font-family="Helvetica-Light" font-size="95.0" fill="#FEFFFF" transform="matrix(1.00, 0.00, -0.00, -1.00, 238.5, 235.0)">t</text><text xml:space="preserve" font-family="Helvetica-Light" font-size="95.0" fill="#FEFFFF" transform="matrix(1.00, 0.00, -0.00, -1.00, 264.9, 235.0)">e</text><text xml:space="preserve" font-family="Helvetica-Light" font-size="95.0" fill="#FEFFFF" transform="matrix(1.00, 0.00, -0.00, -1.00, 317.7, 235.0)">r</text><text xml:space="preserve" font-family="Helvetica-Light" font-size="95.0" fill="#FEFFFF" transform="matrix(1.00, 0.00, -0.00, -1.00, 349.4, 235.0)"> </text><text xml:space="preserve" font-family="Helvetica-Light" font-size="95.0" fill="#FEFFFF" transform="matrix(1.00, 0.00, -0.00, -1.00, 375.8, 235.0)"> </text><text xml:space="preserve" font-family="Helvetica-Light" font-size="95.0" fill="#FEFFFF" transform="matrix(1.00, 0.00, -0.00, -1.00, 402.2, 235.0)">/</text><text xml:space="preserve" font-family="Helvetica-Light" font-size="95.0" fill="#FEFFFF" transform="matrix(1.00, 0.00, -0.00, -1.00, 428.6, 235.0)"> </text><text xml:space="preserve" font-family="Helvetica-Light" font-size="95.0" fill="#FEFFFF" transform="matrix(1.00, 0.00, -0.00, -1.00, 455.0, 235.0)">c</text><text xml:space="preserve" font-family="Helvetica-Light" font-size="95.0" fill="#FEFFFF" transform="matrix(1.00, 0.00, -0.00, -1.00, 507.8, 235.0)">o</text><text xml:space="preserve" font-family="Helvetica-Light" font-size="95.0" fill="#FEFFFF" transform="matrix(1.00, 0.00, -0.00, -1.00, 560.6, 235.0)">u</text><text xml:space="preserve" font-family="Helvetica-Light" font-size="95.0" fill="#FEFFFF" transform="matrix(1.00, 0.00, -0.00, -1.00, 613.5, 235.0)">r</text><text xml:space="preserve" font-family="Helvetica-Light" font-size="95.0" fill="#FEFFFF" transform="matrix(1.00, 0.00, -0.00, -1.00, 646.8, 235.0)">t</text><text xml:space="preserve" font-family="Helvetica-Light" font-size="95.0" fill="#FEFFFF" transform="matrix(1.00, 0.00, -0.00, -1.00, 673.2, 235.0)">e</text><text xml:space="preserve" font-family="Helvetica-Light" font-size="95.0" fill="#FEFFFF" transform="matrix(1.00, 0.00, -0.00, -1.00, 726.0, 235.0)">w</text><text xml:space="preserve" font-family="Helvetica-Light" font-size="95.0" fill="#FEFFFF" transform="matrix(1.00, 0.00, -0.00, -1.00, 794.6, 235.0)">i</text><text xml:space="preserve" font-family="Helvetica-Light" font-size="95.0" fill="#FEFFFF" transform="matrix(1.00, 0.00, -0.00, -1.00, 815.7, 235.0)">n</text><text xml:space="preserve" font-family="Helvetica-Light" font-size="95.0" fill="#FEFFFF" transform="matrix(1.00, 0.00, -0.00, -1.00, 868.5, 235.0)">g</text></g></svg>