<?xml version="1.0" encoding="UTF-8" standalone="no"?><svg xmlns="http://www.w3.org/2000/svg" xmlns:xlink="http://www.w3.org/1999/xlink" clip-rule="evenodd" stroke-miterlimit="4.00" viewBox="0 0 1024 768"><desc>SVG generated by Keynote</desc><defs></defs><g transform="matrix(1.00, 0.00, -0.00, -1.00, 0.0, 768.0)"><path d="M 0.0 768.0 L 1024.0 768.0 L 1024.0 0.0 L 0.0 0.0 Z M 0.0 768.0 " fill="#000000"></path><text xml:space="preserve" font-family="Helvetica-Light" font-size="95.0" fill="#FEFFFF" transform="matrix(1.00, 0.00, -0.00, -1.00, 44.0, 417.0)">H</text><text xml:space="preserve" font-family="Helvetica-Light" font-size="95.0" fill="#FEFFFF" transform="matrix(1.00, 0.00, -0.00, -1.00, 112.6, 417.0)">o</text><text xml:space="preserve" font-family="Helvetica-Light" font-size="95.0" fill="#FEFFFF" transform="matrix(1.00, 0.00, -0.00, -1.00, 165.4, 417.0)">w</text><text xml:space="preserve" font-family="Helvetica-Light" font-size="95.0" fill="#FEFFFF" transform="matrix(1.00, 0.00, -0.00, -1.00, 234.0, 417.0)"> </text><text xml:space="preserve" font-family="Helvetica-Light" font-size="95.0" fill="#FEFFFF" transform="matrix(1.00, 0.00, -0.00, -1.00, 260.4, 417.0)">d</text><text xml:space="preserve" font-family="Helvetica-Light" font-size="95.0" fill="#FEFFFF" transform="matrix(1.00, 0.00, -0.00, -1.00, 318.5, 417.0)">o</text><text xml:space="preserve" font-family="Helvetica-Light" font-size="95.0" fill="#FEFFFF" transform="matrix(1.00, 0.00, -0.00, -1.00, 371.3, 417.0)"> </text><text xml:space="preserve" font-family="Helvetica-Light" font-size="95.0" fill="#FEFFFF" transform="matrix(1.00, 0.00, -0.00, -1.00, 397.7, 417.0)">w</text><text xml:space="preserve" font-family="Helvetica-Light" font-size="95.0" fill="#FEFFFF" transform="matrix(1.00, 0.00, -0.00, -1.00, 466.3, 417.0)">e</text><text xml:space="preserve" font-family="Helvetica-Light" font-size="95.0" fill="#FEFFFF" transform="matrix(1.00, 0.00, -0.00, -1.00, 519.1, 417.0)"> </text><text xml:space="preserve" font-family="Helvetica-Light" font-size="95.0" fill="#FEFFFF" transform="matrix(1.00, 0.00, -0.00, -1.00, 545.5, 417.0)">m</text><text xml:space="preserve" font-family="Helvetica-Light" font-size="95.0" fill="#FEFFFF" transform="matrix(1.00, 0.00, -0.00, -1.00, 624.6, 417.0)">a</text><text xml:space="preserve" font-family="Helvetica-Light" font-size="95.0" fill="#FEFFFF" transform="matrix(1.00, 0.00, -0.00, -1.00, 677.5, 417.0)">k</text><text xml:space="preserve" font-family="Helvetica-Light" font-size="95.0" fill="#FEFFFF" transform="matrix(1.00, 0.00, -0.00, -1.00, 725.0, 417.0)">e</text><text xml:space="preserve" font-family="Helvetica-Light" font-size="95.0" fill="#FEFFFF" transform="matrix(1.00, 0.00, -0.00, -1.00, 777.8, 417.0)"> </text><text xml:space="preserve" font-family="Helvetica-Bold" font-weight="bold" font-size="95.0" fill="#FEFFFF" transform="matrix(1.00, 0.00, -0.00, -1.00, 44.0, 280.0)">t</text><text xml:space="preserve" font-family="Helvetica-Bold" font-weight="bold" font-size="95.0" fill="#FEFFFF" transform="matrix(1.00, 0.00, -0.00, -1.00, 75.6, 280.0)">h</text><text xml:space="preserve" font-family="Helvetica-Bold" font-weight="bold" font-size="95.0" fill="#FEFFFF" transform="matrix(1.00, 0.00, -0.00, -1.00, 133.6, 280.0)">e</text><text xml:space="preserve" font-family="Helvetica-Bold" font-weight="bold" font-size="95.0" fill="#FEFFFF" transform="matrix(1.00, 0.00, -0.00, -1.00, 186.5, 280.0)"> </text><text xml:space="preserve" font-family="Helvetica-Bold" font-weight="bold" font-size="95.0" fill="#FEFFFF" transform="matrix(1.00, 0.00, -0.00, -1.00, 212.9, 280.0)">a</text><text xml:space="preserve" font-family="Helvetica-Bold" font-weight="bold" font-size="95.0" fill="#FEFFFF" transform="matrix(1.00, 0.00, -0.00, -1.00, 265.7, 280.0)">p</text><text xml:space="preserve" font-family="Helvetica-Bold" font-weight="bold" font-size="95.0" fill="#FEFFFF" transform="matrix(1.00, 0.00, -0.00, -1.00, 323.7, 280.0)">p</text><text xml:space="preserve" font-family="Helvetica-Bold" font-weight="bold" font-size="95.0" fill="#FEFFFF" transform="matrix(1.00, 0.00, -0.00, -1.00, 381.8, 280.0)"> </text><text xml:space="preserve" font-family="Helvetica-Bold" font-weight="bold" font-size="95.0" fill="#FEFFFF" transform="matrix(1.00, 0.00, -0.00, -1.00, 408.1, 280.0)">w</text><text xml:space="preserve" font-family="Helvetica-Bold" font-weight="bold" font-size="95.0" fill="#FEFFFF" transform="matrix(1.00, 0.00, -0.00, -1.00, 482.0, 280.0)">o</text><text xml:space="preserve" font-family="Helvetica-Bold" font-weight="bold" font-size="95.0" fill="#FEFFFF" transform="matrix(1.00, 0.00, -0.00, -1.00, 540.0, 280.0)">r</text><text xml:space="preserve" font-family="Helvetica-Bold" font-weight="bold" font-size="95.0" fill="#FEFFFF" transform="matrix(1.00, 0.00, -0.00, -1.00, 577.0, 280.0)">k</text><text xml:space="preserve" font-family="Helvetica-Light" font-size="95.0" fill="#FEFFFF" transform="matrix(1.00, 0.00, -0.00, -1.00, 629.9, 280.0)">?</text></g></svg>