<?xml version="1.0" encoding="UTF-8" standalone="no"?><svg xmlns="http://www.w3.org/2000/svg" xmlns:xlink="http://www.w3.org/1999/xlink" clip-rule="evenodd" stroke-miterlimit="4.00" viewBox="0 0 1024 768"><desc>SVG generated by Keynote</desc><defs></defs><g transform="matrix(1.00, 0.00, -0.00, -1.00, 0.0, 768.0)"><path d="M 0.0 768.0 L 1024.0 768.0 L 1024.0 0.0 L 0.0 0.0 Z M 0.0 768.0 " fill="#000000"></path><text xml:space="preserve" font-family="Helvetica-Bold" font-weight="bold" font-size="55.0" fill="#FEFFFF" transform="matrix(1.00, 0.00, -0.00, -1.00, 425.0, 696.0)">j</text><text xml:space="preserve" font-family="Helvetica-Bold" font-weight="bold" font-size="55.0" fill="#FEFFFF" transform="matrix(1.00, 0.00, -0.00, -1.00, 440.3, 696.0)">Q</text><text xml:space="preserve" font-family="Helvetica-Bold" font-weight="bold" font-size="55.0" fill="#FEFFFF" transform="matrix(1.00, 0.00, -0.00, -1.00, 483.0, 696.0)">u</text><text xml:space="preserve" font-family="Helvetica-Bold" font-weight="bold" font-size="55.0" fill="#FEFFFF" transform="matrix(1.00, 0.00, -0.00, -1.00, 516.6, 696.0)">e</text><text xml:space="preserve" font-family="Helvetica-Bold" font-weight="bold" font-size="55.0" fill="#FEFFFF" transform="matrix(1.00, 0.00, -0.00, -1.00, 547.2, 696.0)">r</text><text xml:space="preserve" font-family="Helvetica-Bold" font-weight="bold" font-size="55.0" fill="#FEFFFF" transform="matrix(1.00, 0.00, -0.00, -1.00, 568.6, 696.0)">y</text><text xml:space="preserve" font-family="Helvetica-Light" font-size="55.0" fill="#FEFFFF" transform="matrix(1.00, 0.00, -0.00, -1.00, 240.0, 630.0)">w</text><text xml:space="preserve" font-family="Helvetica-Light" font-size="55.0" fill="#FEFFFF" transform="matrix(1.00, 0.00, -0.00, -1.00, 279.7, 630.0)">h</text><text xml:space="preserve" font-family="Helvetica-Light" font-size="55.0" fill="#FEFFFF" transform="matrix(1.00, 0.00, -0.00, -1.00, 310.3, 630.0)">a</text><text xml:space="preserve" font-family="Helvetica-Light" font-size="55.0" fill="#FEFFFF" transform="matrix(1.00, 0.00, -0.00, -1.00, 340.9, 630.0)">t</text><text xml:space="preserve" font-family="Helvetica-Light" font-size="55.0" fill="#FEFFFF" transform="matrix(1.00, 0.00, -0.00, -1.00, 356.2, 630.0)"> </text><text xml:space="preserve" font-family="Helvetica-Light" font-size="55.0" fill="#FEFFFF" transform="matrix(1.00, 0.00, -0.00, -1.00, 371.5, 630.0)">y</text><text xml:space="preserve" font-family="Helvetica-Light" font-size="55.0" fill="#FEFFFF" transform="matrix(1.00, 0.00, -0.00, -1.00, 399.0, 630.0)">o</text><text xml:space="preserve" font-family="Helvetica-Light" font-size="55.0" fill="#FEFFFF" transform="matrix(1.00, 0.00, -0.00, -1.00, 429.5, 630.0)">u</text><text xml:space="preserve" font-family="Helvetica-Light" font-size="55.0" fill="#FEFFFF" transform="matrix(1.00, 0.00, -0.00, -1.00, 460.1, 630.0)"> </text><text xml:space="preserve" font-family="Helvetica-Light" font-size="55.0" fill="#FEFFFF" transform="matrix(1.00, 0.00, -0.00, -1.00, 475.4, 630.0)">a</text><text xml:space="preserve" font-family="Helvetica-Light" font-size="55.0" fill="#FEFFFF" transform="matrix(1.00, 0.00, -0.00, -1.00, 506.0, 630.0)">c</text><text xml:space="preserve" font-family="Helvetica-Light" font-size="55.0" fill="#FEFFFF" transform="matrix(1.00, 0.00, -0.00, -1.00, 536.6, 630.0)">t</text><text xml:space="preserve" font-family="Helvetica-Light" font-size="55.0" fill="#FEFFFF" transform="matrix(1.00, 0.00, -0.00, -1.00, 551.9, 630.0)">u</text><text xml:space="preserve" font-family="Helvetica-Light" font-size="55.0" fill="#FEFFFF" transform="matrix(1.00, 0.00, -0.00, -1.00, 582.4, 630.0)">a</text><text xml:space="preserve" font-family="Helvetica-Light" font-size="55.0" fill="#FEFFFF" transform="matrix(1.00, 0.00, -0.00, -1.00, 613.0, 630.0)">l</text><text xml:space="preserve" font-family="Helvetica-Light" font-size="55.0" fill="#FEFFFF" transform="matrix(1.00, 0.00, -0.00, -1.00, 625.2, 630.0)">l</text><text xml:space="preserve" font-family="Helvetica-Light" font-size="55.0" fill="#FEFFFF" transform="matrix(1.00, 0.00, -0.00, -1.00, 637.4, 630.0)">y</text><text xml:space="preserve" font-family="Helvetica-Light" font-size="55.0" fill="#FEFFFF" transform="matrix(1.00, 0.00, -0.00, -1.00, 664.9, 630.0)"> </text><text xml:space="preserve" font-family="Helvetica-Light" font-size="55.0" fill="#FEFFFF" transform="matrix(1.00, 0.00, -0.00, -1.00, 680.2, 630.0)">b</text><text xml:space="preserve" font-family="Helvetica-Light" font-size="55.0" fill="#FEFFFF" transform="matrix(1.00, 0.00, -0.00, -1.00, 713.8, 630.0)">u</text><text xml:space="preserve" font-family="Helvetica-Light" font-size="55.0" fill="#FEFFFF" transform="matrix(1.00, 0.00, -0.00, -1.00, 744.4, 630.0)">i</text><text xml:space="preserve" font-family="Helvetica-Light" font-size="55.0" fill="#FEFFFF" transform="matrix(1.00, 0.00, -0.00, -1.00, 756.6, 630.0)">l</text><text xml:space="preserve" font-family="Helvetica-Light" font-size="55.0" fill="#FEFFFF" transform="matrix(1.00, 0.00, -0.00, -1.00, 768.8, 630.0)">t</text><image xlink:href="../../79F2CD20-A8AD-4142-B6ED-ECC2B0D96AAA/assets/6BC33C8E4C6B51715F09E4AB012390ED.png" width="468.00" height="469.00" transform="matrix(1.17, 0.00, -0.00, -1.17, 238.0, 593.0)"></image></g></svg>